<svg id="Layer_1" data-name="Layer 1" xmlns="http://www.w3.org/2000/svg" viewBox="0 0 1480 542.51"><defs><style>.cls-1{fill:#404242;}</style></defs><path class="cls-1" d="M432.77,196a17.38,17.38,0,1,0-27.44,14.18,1.66,1.66,0,1,1-1.93,2.7,20.7,20.7,0,1,1,23.06.62,1.69,1.69,0,0,1-.89.25,1.64,1.64,0,0,1-1.4-.77,1.66,1.66,0,0,1,.51-2.29A17.3,17.3,0,0,0,432.77,196ZM398,222.3a1.72,1.72,0,0,0,.92.27,1.66,1.66,0,0,0,.92-3,28.17,28.17,0,1,1,31.4-.22,1.66,1.66,0,0,0,1.87,2.75,31.5,31.5,0,1,0-35.11.24Zm167.72,20.08v60a7.49,7.49,0,0,1-7.48,7.47H378.34a7.48,7.48,0,0,1-7.47-7.47v-60a7.49,7.49,0,0,1,7.47-7.48h33V206.74a4.15,4.15,0,0,1,8.3,0V234.9H558.25A7.49,7.49,0,0,1,565.73,242.38Zm-8.31.83H379.17v58.32H557.42Zm-48.19,36a6,6,0,1,0-6-6A6,6,0,0,0,509.23,279.17Zm19.31,0a6,6,0,1,0-6-6A6,6,0,0,0,528.54,279.17Zm-57.93,0a6,6,0,1,0-6-6A6,6,0,0,0,470.61,279.17Zm19.31,0a6,6,0,1,0-6-6A6,6,0,0,0,489.92,279.17Zm43.34,37.68H403.34a4.16,4.16,0,0,0,0,8.31H533.26a4.16,4.16,0,0,0,0-8.31Z"/><path class="cls-1" d="M1428.78,183.83V76a8.53,8.53,0,0,0-8.52-8.52H1257.72A8.53,8.53,0,0,0,1249.2,76V183.83h-11.37c1,7.7,6.35,13.63,12.76,13.63H1426.5c6.41,0,11.75-5.93,12.76-13.63ZM1258.94,77.2h160.11V183.83H1258.94Z"/><path class="cls-1" d="M1428.75,422V314.2a8.53,8.53,0,0,0-8.52-8.52H1257.69a8.52,8.52,0,0,0-8.51,8.52V422h-11.37c1,7.7,6.34,13.63,12.75,13.63h175.91c6.41,0,11.75-5.93,12.76-13.63ZM1258.91,315.41H1419V422H1258.91Z"/><path class="cls-1" d="M1069.94,121h-7.09v19.56h-3.93V121h-7v-3.19h18Z"/><path class="cls-1" d="M1080.39,127.08a9.7,9.7,0,0,0-1.54-.12,3.48,3.48,0,0,0-3.52,2v11.56h-3.8V123.61h3.63l.09,1.89a4.28,4.28,0,0,1,3.82-2.2,3.48,3.48,0,0,1,1.34.22Z"/><path class="cls-1" d="M1092.42,140.52a6,6,0,0,1-.43-1.58,6.4,6.4,0,0,1-8.6.44,4.67,4.67,0,0,1-1.61-3.6,4.78,4.78,0,0,1,2-4.14,9.68,9.68,0,0,1,5.74-1.45h2.33v-1.11a3,3,0,0,0-.73-2.1,2.91,2.91,0,0,0-2.24-.79,3.35,3.35,0,0,0-2.12.65,2,2,0,0,0-.83,1.65h-3.8a4.17,4.17,0,0,1,.93-2.6,6.13,6.13,0,0,1,2.5-1.9,8.8,8.8,0,0,1,3.54-.69,7.14,7.14,0,0,1,4.74,1.49,5.36,5.36,0,0,1,1.81,4.2v7.62a8.58,8.58,0,0,0,.64,3.64v.27Zm-4.17-2.74a4.37,4.37,0,0,0,2.12-.54,3.7,3.7,0,0,0,1.49-1.47v-3.19h-2a5.62,5.62,0,0,0-3.18.74,2.37,2.37,0,0,0-1.06,2.07,2.23,2.23,0,0,0,.73,1.75A2.8,2.8,0,0,0,1088.25,137.78Z"/><path class="cls-1" d="M1101,140.52v-14.1h-2.58v-2.81H1101v-1.54a5.82,5.82,0,0,1,1.56-4.35,6,6,0,0,1,4.38-1.53,8.59,8.59,0,0,1,2.12.28l-.09,3a7.79,7.79,0,0,0-1.45-.12c-1.82,0-2.72.93-2.72,2.79v1.5h3.44v2.81h-3.44v14.1Z"/><path class="cls-1" d="M1112.32,140.52v-14.1h-2.58v-2.81h2.58v-1.54a5.82,5.82,0,0,1,1.56-4.35,6,6,0,0,1,4.37-1.53,8.67,8.67,0,0,1,2.13.28l-.1,3a7.71,7.71,0,0,0-1.45-.12c-1.81,0-2.72.93-2.72,2.79v1.5h3.44v2.81h-3.44v14.1Z"/><path class="cls-1" d="M1122.33,119.22a2,2,0,0,1,.56-1.45,2,2,0,0,1,1.58-.58,2.12,2.12,0,0,1,1.6.58,2,2,0,0,1,.56,1.45,2,2,0,0,1-.56,1.43,2.16,2.16,0,0,1-1.6.57,2.08,2.08,0,0,1-1.58-.57A2,2,0,0,1,1122.33,119.22Zm4,21.3h-3.79V123.61h3.79Z"/><path class="cls-1" d="M1137.44,137.8a3.45,3.45,0,0,0,2.36-.83,2.83,2.83,0,0,0,1-2.05h3.58a5.51,5.51,0,0,1-1,3,6.36,6.36,0,0,1-2.5,2.16,7.31,7.31,0,0,1-3.4.8,7.19,7.19,0,0,1-5.63-2.3,9.12,9.12,0,0,1-2.08-6.34v-.39a9,9,0,0,1,2.07-6.18,7.12,7.12,0,0,1,5.62-2.32,7,7,0,0,1,4.92,1.76,6.3,6.3,0,0,1,2,4.61h-3.58a3.49,3.49,0,0,0-1-2.39,3.21,3.21,0,0,0-2.37-.93,3.32,3.32,0,0,0-2.84,1.33,6.79,6.79,0,0,0-1,4.06v.61a6.94,6.94,0,0,0,1,4.1A3.34,3.34,0,0,0,1137.44,137.8Z"/><path class="cls-1" d="M1160,119.5v4.11h3v2.81h-3v9.44a2.11,2.11,0,0,0,.38,1.4,1.78,1.78,0,0,0,1.37.43,5.56,5.56,0,0,0,1.33-.16v2.94a9.38,9.38,0,0,1-2.5.36q-4.38,0-4.38-4.83v-9.58h-2.78v-2.81h2.78V119.5Z"/><path class="cls-1" d="M1164.67,131.91a9.93,9.93,0,0,1,1-4.48,7.21,7.21,0,0,1,2.76-3.06,7.86,7.86,0,0,1,4.1-1.07,7.37,7.37,0,0,1,5.55,2.2,8.67,8.67,0,0,1,2.31,5.85v.89a10.12,10.12,0,0,1-1,4.47,7.06,7.06,0,0,1-2.75,3,7.83,7.83,0,0,1-4.13,1.08,7.32,7.32,0,0,1-5.73-2.38,9.15,9.15,0,0,1-2.15-6.35Zm3.8.33a6.77,6.77,0,0,0,1.08,4.08,3.5,3.5,0,0,0,3,1.48,3.46,3.46,0,0,0,3-1.5,7.54,7.54,0,0,0,1.07-4.39,6.67,6.67,0,0,0-1.1-4.06,3.51,3.51,0,0,0-3-1.5,3.47,3.47,0,0,0-3,1.47A7.4,7.4,0,0,0,1168.47,132.24Z"/><path class="cls-1" d="M1204.67,135.22h-8.81l-1.84,5.3h-4.11l8.59-22.75h3.55l8.61,22.75h-4.13ZM1197,132h6.6l-3.3-9.43Z"/><path class="cls-1" d="M1272.68,227.73a8.23,8.23,0,0,1-2.69,5.68,9.15,9.15,0,0,1-6.23,2,8.85,8.85,0,0,1-4.79-1.29,8.45,8.45,0,0,1-3.2-3.67,13.18,13.18,0,0,1-1.17-5.51v-2.13a13.35,13.35,0,0,1,1.14-5.67,8.65,8.65,0,0,1,3.27-3.78,9.21,9.21,0,0,1,4.93-1.33,8.83,8.83,0,0,1,6.07,2,8.54,8.54,0,0,1,2.67,5.77h-3.94a5.59,5.59,0,0,0-1.43-3.53,4.71,4.71,0,0,0-3.37-1.09,4.62,4.62,0,0,0-4,1.88,9.44,9.44,0,0,0-1.41,5.53v2a10,10,0,0,0,1.32,5.63,4.39,4.39,0,0,0,3.87,1.94,5.12,5.12,0,0,0,3.5-1,5.45,5.45,0,0,0,1.48-3.48Z"/><path class="cls-1" d="M1275.13,226.53a9.93,9.93,0,0,1,1-4.48,7.09,7.09,0,0,1,2.76-3.06,7.73,7.73,0,0,1,4.09-1.07,7.37,7.37,0,0,1,5.56,2.2,8.66,8.66,0,0,1,2.3,5.84l0,.89a10.05,10.05,0,0,1-1,4.47,7.15,7.15,0,0,1-2.75,3.05,7.83,7.83,0,0,1-4.13,1.08,7.33,7.33,0,0,1-5.73-2.39,9.11,9.11,0,0,1-2.15-6.35Zm3.8.32a6.83,6.83,0,0,0,1.08,4.09,3.76,3.76,0,0,0,6,0,7.56,7.56,0,0,0,1.07-4.39,6.78,6.78,0,0,0-1.1-4.07,3.54,3.54,0,0,0-3-1.5,3.47,3.47,0,0,0-3,1.48A7.37,7.37,0,0,0,1278.93,226.85Z"/><path class="cls-1" d="M1297.63,218.23l.11,1.76a6.1,6.1,0,0,1,4.88-2.07c2.26,0,3.8.86,4.64,2.59a6,6,0,0,1,5.18-2.59,5.28,5.28,0,0,1,4.17,1.54A6.89,6.89,0,0,1,1318,224v11.1h-3.8v-11a3.38,3.38,0,0,0-.7-2.35,3.09,3.09,0,0,0-2.33-.75,3.18,3.18,0,0,0-2.12.69,3.64,3.64,0,0,0-1.15,1.82l0,11.59h-3.8V224a2.71,2.71,0,0,0-3.05-3,3.34,3.34,0,0,0-3.23,1.85v12.25h-3.8v-16.9Z"/><path class="cls-1" d="M1336.71,226.85a10.05,10.05,0,0,1-1.78,6.26,6.19,6.19,0,0,1-9.24.51v8h-3.79v-23.4h3.5l.15,1.72a5.57,5.57,0,0,1,4.55-2,5.75,5.75,0,0,1,4.85,2.3,10.36,10.36,0,0,1,1.76,6.4Zm-3.78-.32a7.08,7.08,0,0,0-1-4A3.26,3.26,0,0,0,1329,221a3.5,3.5,0,0,0-3.35,1.92v7.5a3.54,3.54,0,0,0,3.38,2,3.25,3.25,0,0,0,2.83-1.47A7.67,7.67,0,0,0,1332.93,226.53Z"/><path class="cls-1" d="M1350.16,233.48a5.89,5.89,0,0,1-4.75,2,5.25,5.25,0,0,1-4.16-1.61,6.82,6.82,0,0,1-1.42-4.66v-11h3.8v10.9c0,2.15.89,3.22,2.67,3.22a3.76,3.76,0,0,0,3.74-2V218.23h3.79v16.9h-3.57Z"/><path class="cls-1" d="M1362.46,214.12v4.11h3V221h-3v9.44a2.13,2.13,0,0,0,.38,1.4,1.81,1.81,0,0,0,1.37.43,6.12,6.12,0,0,0,1.33-.16v2.94a9.38,9.38,0,0,1-2.5.36q-4.38,0-4.38-4.83V221h-2.78v-2.81h2.78v-4.11Z"/><path class="cls-1" d="M1375.79,235.45a7.83,7.83,0,0,1-5.85-2.28,8.21,8.21,0,0,1-2.25-6v-.47a10.11,10.11,0,0,1,1-4.52,7.39,7.39,0,0,1,2.74-3.1,7.26,7.26,0,0,1,3.94-1.11,6.65,6.65,0,0,1,5.34,2.2,9.35,9.35,0,0,1,1.88,6.23v1.53h-11a5.12,5.12,0,0,0,1.4,3.32,4.22,4.22,0,0,0,3.09,1.22,5.17,5.17,0,0,0,4.25-2.11l2,1.95a6.81,6.81,0,0,1-2.71,2.35A8.45,8.45,0,0,1,1375.79,235.45Zm-.46-14.49a3.19,3.19,0,0,0-2.52,1.1,5.68,5.68,0,0,0-1.23,3h7.24v-.28a4.61,4.61,0,0,0-1-2.88A3.16,3.16,0,0,0,1375.33,221Z"/><path class="cls-1" d="M1394.37,221.7a8.76,8.76,0,0,0-1.55-.13,3.5,3.5,0,0,0-3.52,2v11.56h-3.79v-16.9h3.62l.09,1.89a4.28,4.28,0,0,1,3.82-2.2,3.66,3.66,0,0,1,1.34.21Z"/><path class="cls-1" d="M1417.83,229.84H1409l-1.84,5.29h-4.11l8.59-22.75h3.55l8.61,22.75h-4.13Zm-7.7-3.19h6.59l-3.29-9.44Z"/><path class="cls-1" d="M1273.21,464.82a8.23,8.23,0,0,1-2.69,5.68,9.16,9.16,0,0,1-6.24,2,8.88,8.88,0,0,1-4.79-1.29,8.46,8.46,0,0,1-3.19-3.66,13.26,13.26,0,0,1-1.17-5.52V460a13.36,13.36,0,0,1,1.14-5.68,8.65,8.65,0,0,1,3.27-3.78,9.19,9.19,0,0,1,4.93-1.33,8.78,8.78,0,0,1,6.06,2,8.55,8.55,0,0,1,2.68,5.78h-3.94a5.65,5.65,0,0,0-1.43-3.54,4.71,4.71,0,0,0-3.37-1.09,4.61,4.61,0,0,0-4,1.89,9.42,9.42,0,0,0-1.41,5.53v2a10,10,0,0,0,1.32,5.63,4.36,4.36,0,0,0,3.86,1.94,5.13,5.13,0,0,0,3.5-1,5.48,5.48,0,0,0,1.49-3.49Z"/><path class="cls-1" d="M1275.66,463.62a10.06,10.06,0,0,1,1-4.48,7.17,7.17,0,0,1,2.77-3.06,7.82,7.82,0,0,1,4.09-1.07,7.4,7.4,0,0,1,5.56,2.2,8.66,8.66,0,0,1,2.3,5.85l0,.89a10,10,0,0,1-1,4.46,7.09,7.09,0,0,1-2.75,3,7.86,7.86,0,0,1-4.14,1.08,7.32,7.32,0,0,1-5.72-2.38,9.1,9.1,0,0,1-2.15-6.35Zm3.8.33a6.77,6.77,0,0,0,1.07,4.08,3.77,3.77,0,0,0,6,0,7.54,7.54,0,0,0,1.07-4.39,6.68,6.68,0,0,0-1.11-4.06,3.71,3.71,0,0,0-5.94,0A7.41,7.41,0,0,0,1279.46,464Z"/><path class="cls-1" d="M1298.16,455.32l.11,1.77a6.07,6.07,0,0,1,4.87-2.08q3.39,0,4.64,2.59A6,6,0,0,1,1313,455a5.22,5.22,0,0,1,4.16,1.55,6.75,6.75,0,0,1,1.4,4.56v11.11h-3.79v-11a3.35,3.35,0,0,0-.71-2.36,3.06,3.06,0,0,0-2.32-.75,3.16,3.16,0,0,0-2.12.69,3.68,3.68,0,0,0-1.15,1.82l0,11.6h-3.8V461.1a2.71,2.71,0,0,0-3.05-3,3.33,3.33,0,0,0-3.23,1.86v12.25h-3.8V455.32Z"/><path class="cls-1" d="M1337.24,464a10.08,10.08,0,0,1-1.78,6.25,6.19,6.19,0,0,1-9.24.51v8h-3.8V455.32h3.5l.16,1.72a5.58,5.58,0,0,1,4.55-2,5.77,5.77,0,0,1,4.85,2.3,10.36,10.36,0,0,1,1.76,6.4Zm-3.78-.33a7.08,7.08,0,0,0-1-4,3.28,3.28,0,0,0-2.89-1.48,3.49,3.49,0,0,0-3.34,1.92v7.5a3.53,3.53,0,0,0,3.38,2,3.28,3.28,0,0,0,2.83-1.46A7.79,7.79,0,0,0,1333.46,463.62Z"/><path class="cls-1" d="M1350.69,470.57a5.91,5.91,0,0,1-4.75,2,5.25,5.25,0,0,1-4.16-1.61,6.8,6.8,0,0,1-1.42-4.66V455.32h3.8v10.91c0,2.14.89,3.22,2.67,3.22a3.75,3.75,0,0,0,3.73-2V455.32h3.8v16.91h-3.58Z"/><path class="cls-1" d="M1363,451.21v4.11h3v2.81h-3v9.44a2.06,2.06,0,0,0,.38,1.4,1.76,1.76,0,0,0,1.37.43,5.48,5.48,0,0,0,1.32-.16v2.94a9.27,9.27,0,0,1-2.5.36q-4.36,0-4.37-4.83v-9.58h-2.78v-2.81h2.78v-4.11Z"/><path class="cls-1" d="M1376.31,472.54a7.89,7.89,0,0,1-5.85-2.27,8.29,8.29,0,0,1-2.24-6.06v-.47a10.17,10.17,0,0,1,1-4.52,7.39,7.39,0,0,1,2.74-3.1,7.26,7.26,0,0,1,3.94-1.11,6.61,6.61,0,0,1,5.33,2.2,9.31,9.31,0,0,1,1.89,6.24V465h-11a5,5,0,0,0,1.4,3.31,4.18,4.18,0,0,0,3.08,1.22,5.13,5.13,0,0,0,4.25-2.11l2,2a6.8,6.8,0,0,1-2.71,2.35A8.46,8.46,0,0,1,1376.31,472.54Zm-.45-14.48a3.19,3.19,0,0,0-2.52,1.09,5.69,5.69,0,0,0-1.23,3.05h7.24v-.29a4.67,4.67,0,0,0-1-2.88A3.17,3.17,0,0,0,1375.86,458.06Z"/><path class="cls-1" d="M1394.89,458.79a9.7,9.7,0,0,0-1.54-.13,3.49,3.49,0,0,0-3.52,2v11.57H1386V455.32h3.63l.09,1.89a4.28,4.28,0,0,1,3.81-2.2,3.5,3.5,0,0,1,1.35.22Z"/><path class="cls-1" d="M1405.63,472.23V449.48h7.79a9.52,9.52,0,0,1,5.88,1.54,5.47,5.47,0,0,1,2,4.61,5,5,0,0,1-.84,2.82,5.34,5.34,0,0,1-2.47,1.93,5,5,0,0,1,2.85,1.89,5.43,5.43,0,0,1,1,3.32,6.06,6.06,0,0,1-2,4.92,9,9,0,0,1-5.89,1.72Zm3.95-13.17h3.88a4.49,4.49,0,0,0,2.88-.84,2.88,2.88,0,0,0,1-2.37,2.92,2.92,0,0,0-1-2.44,4.87,4.87,0,0,0-3-.75h-3.84Zm0,2.9v7.11H1414a4.28,4.28,0,0,0,2.91-.92,3.26,3.26,0,0,0,1-2.56q0-3.55-3.62-3.63Z"/><path class="cls-1" d="M1069.94,394.66h-7.09v19.57h-3.93V394.66h-7v-3.18h18Z"/><path class="cls-1" d="M1080.39,400.79a9.7,9.7,0,0,0-1.54-.13,3.49,3.49,0,0,0-3.52,2v11.57h-3.8V397.32h3.63l.09,1.89a4.28,4.28,0,0,1,3.82-2.2,3.48,3.48,0,0,1,1.34.22Z"/><path class="cls-1" d="M1092.42,414.23a6.07,6.07,0,0,1-.43-1.58,6.4,6.4,0,0,1-8.6.44,4.67,4.67,0,0,1-1.61-3.6,4.81,4.81,0,0,1,2-4.15,9.75,9.75,0,0,1,5.74-1.44h2.33v-1.11a2.65,2.65,0,0,0-3-2.89,3.35,3.35,0,0,0-2.12.65,2,2,0,0,0-.83,1.65h-3.8a4.21,4.21,0,0,1,.93-2.61,6.11,6.11,0,0,1,2.5-1.89,8.8,8.8,0,0,1,3.54-.69,7.14,7.14,0,0,1,4.74,1.49,5.34,5.34,0,0,1,1.81,4.2v7.62a8.58,8.58,0,0,0,.64,3.64v.27Zm-4.17-2.74a4.37,4.37,0,0,0,2.12-.54,3.7,3.7,0,0,0,1.49-1.47v-3.19h-2a5.62,5.62,0,0,0-3.18.73,2.38,2.38,0,0,0-1.06,2.08,2.19,2.19,0,0,0,.73,1.74A2.76,2.76,0,0,0,1088.25,411.49Z"/><path class="cls-1" d="M1101,414.23v-14.1h-2.58v-2.81H1101v-1.55a5.81,5.81,0,0,1,1.56-4.34,6,6,0,0,1,4.38-1.53,8.59,8.59,0,0,1,2.12.28l-.09,3a7.73,7.73,0,0,0-1.45-.13c-1.82,0-2.72.94-2.72,2.8v1.5h3.44v2.81h-3.44v14.1Z"/><path class="cls-1" d="M1112.32,414.23v-14.1h-2.58v-2.81h2.58v-1.55a5.81,5.81,0,0,1,1.56-4.34,6,6,0,0,1,4.37-1.53,8.67,8.67,0,0,1,2.13.28l-.1,3a7.65,7.65,0,0,0-1.45-.13c-1.81,0-2.72.94-2.72,2.8v1.5h3.44v2.81h-3.44v14.1Z"/><path class="cls-1" d="M1122.33,392.93a2,2,0,0,1,.56-1.45,2,2,0,0,1,1.58-.58,2.12,2.12,0,0,1,1.6.58,2,2,0,0,1,.56,1.45,2,2,0,0,1-.56,1.43,2.16,2.16,0,0,1-1.6.57,2.08,2.08,0,0,1-1.58-.57A2,2,0,0,1,1122.33,392.93Zm4,21.3h-3.79V397.32h3.79Z"/><path class="cls-1" d="M1137.44,411.51a3.45,3.45,0,0,0,2.36-.83,2.83,2.83,0,0,0,1-2.05h3.58a5.51,5.51,0,0,1-1,2.95,6.36,6.36,0,0,1-2.5,2.16,7.43,7.43,0,0,1-3.4.8,7.22,7.22,0,0,1-5.63-2.3,9.12,9.12,0,0,1-2.08-6.34v-.39a9,9,0,0,1,2.07-6.18,7.12,7.12,0,0,1,5.62-2.32,6.93,6.93,0,0,1,4.92,1.76,6.3,6.3,0,0,1,2,4.61h-3.58a3.47,3.47,0,0,0-1-2.39,3.21,3.21,0,0,0-2.37-.93,3.32,3.32,0,0,0-2.84,1.33,6.79,6.79,0,0,0-1,4.06v.61a6.94,6.94,0,0,0,1,4.1A3.34,3.34,0,0,0,1137.44,411.51Z"/><path class="cls-1" d="M1160,393.21v4.11h3v2.81h-3v9.44a2.11,2.11,0,0,0,.38,1.4,1.78,1.78,0,0,0,1.37.43,5.56,5.56,0,0,0,1.33-.16v2.94a9.38,9.38,0,0,1-2.5.36q-4.38,0-4.38-4.83v-9.58h-2.78v-2.81h2.78v-4.11Z"/><path class="cls-1" d="M1164.67,405.62a9.93,9.93,0,0,1,1-4.48,7.21,7.21,0,0,1,2.76-3.06,7.86,7.86,0,0,1,4.1-1.07,7.37,7.37,0,0,1,5.55,2.2,8.67,8.67,0,0,1,2.31,5.85V406a10,10,0,0,1-1,4.46,7,7,0,0,1-2.75,3,7.83,7.83,0,0,1-4.13,1.08,7.32,7.32,0,0,1-5.73-2.38,9.15,9.15,0,0,1-2.15-6.35Zm3.8.33a6.77,6.77,0,0,0,1.08,4.08,3.5,3.5,0,0,0,3,1.48,3.46,3.46,0,0,0,3-1.5,7.54,7.54,0,0,0,1.07-4.39,6.67,6.67,0,0,0-1.1-4.06,3.51,3.51,0,0,0-3-1.5,3.47,3.47,0,0,0-3,1.47A7.4,7.4,0,0,0,1168.47,406Z"/><path class="cls-1" d="M1191.94,414.23V391.48h7.8a9.51,9.51,0,0,1,5.87,1.54,5.45,5.45,0,0,1,2,4.61,4.88,4.88,0,0,1-.85,2.82,5.36,5.36,0,0,1-2.46,1.93,5,5,0,0,1,2.85,1.89,5.49,5.49,0,0,1,1,3.32,6.06,6.06,0,0,1-2.05,4.92,9,9,0,0,1-5.88,1.72Zm4-13.17h3.88a4.45,4.45,0,0,0,2.88-.84,2.88,2.88,0,0,0,1-2.37,2.92,2.92,0,0,0-1-2.44,4.85,4.85,0,0,0-3-.75h-3.85Zm0,2.9v7.11h4.39a4.28,4.28,0,0,0,2.91-.92,3.24,3.24,0,0,0,1-2.56q0-3.55-3.63-3.63Z"/><path class="cls-1" d="M933.88,321.4h-185a3.5,3.5,0,0,1-3.5-3.5v-57a3.5,3.5,0,0,1,3.5-3.5h185a3.5,3.5,0,0,1,3.5,3.5v57A3.5,3.5,0,0,1,933.88,321.4Zm-181.49-7h178v-50h-178Z"/><path class="cls-1" d="M933.88,264.42h-185a3.49,3.49,0,0,1-2.28-6.15l33.24-28.49a3.46,3.46,0,0,1,2.28-.85h58.65a3.83,3.83,0,0,1,.6,0,4.07,4.07,0,0,1,.61,0h58.65a3.5,3.5,0,0,1,2.28.85l33.24,28.49a3.5,3.5,0,0,1-2.28,6.15Zm-175.53-7H924.42l-25.08-21.49H842a3.08,3.08,0,0,1-.61-.05,2.92,2.92,0,0,1-.6.05H783.42Z"/><rect class="cls-1" x="779.29" y="284.92" width="16.16" height="16.16"/><rect class="cls-1" x="782.29" y="281.96" width="10.17" height="5.91"/><rect class="cls-1" x="806.3" y="284.92" width="16.16" height="16.16"/><rect class="cls-1" x="809.29" y="281.96" width="10.17" height="5.91"/><rect class="cls-1" x="833.3" y="284.92" width="16.16" height="16.16"/><rect class="cls-1" x="836.3" y="281.96" width="10.17" height="5.91"/><rect class="cls-1" x="860.31" y="284.92" width="16.16" height="16.16"/><rect class="cls-1" x="863.3" y="281.96" width="10.17" height="5.91"/><rect class="cls-1" x="887.31" y="284.92" width="16.16" height="16.16"/><rect class="cls-1" x="890.31" y="281.96" width="10.17" height="5.91"/><path class="cls-1" d="M80.88,385.51H76.94V362.76h3.94Z"/><path class="cls-1" d="M88.9,368.6l.11,2a6.08,6.08,0,0,1,4.92-2.27q5.28,0,5.37,6v11.17H95.51V374.56a3.52,3.52,0,0,0-.7-2.39,2.93,2.93,0,0,0-2.27-.77,3.67,3.67,0,0,0-3.43,2.08v12H85.32V368.6Z"/><path class="cls-1" d="M107.93,364.49v4.11h3v2.82h-3v9.43a2,2,0,0,0,.38,1.4,1.77,1.77,0,0,0,1.37.43,6.16,6.16,0,0,0,1.33-.15v2.93a9.38,9.38,0,0,1-2.5.36q-4.38,0-4.38-4.83v-9.57h-2.78V368.6h2.78v-4.11Z"/><path class="cls-1" d="M121.26,385.82a7.9,7.9,0,0,1-5.86-2.27,8.27,8.27,0,0,1-2.24-6.06V377a10.19,10.19,0,0,1,1-4.53,7.39,7.39,0,0,1,2.74-3.1,7.26,7.26,0,0,1,3.94-1.11,6.64,6.64,0,0,1,5.33,2.2,9.31,9.31,0,0,1,1.89,6.24v1.53H117a5,5,0,0,0,1.4,3.31,4.16,4.16,0,0,0,3.08,1.22,5.13,5.13,0,0,0,4.25-2.11l2,2a6.87,6.87,0,0,1-2.71,2.35A8.58,8.58,0,0,1,121.26,385.82Zm-.46-14.48a3.19,3.19,0,0,0-2.52,1.09,5.72,5.72,0,0,0-1.23,3.05h7.24v-.28a4.72,4.72,0,0,0-1-2.89A3.17,3.17,0,0,0,120.8,371.34Z"/><path class="cls-1" d="M139.83,372.07a9.7,9.7,0,0,0-1.54-.12,3.48,3.48,0,0,0-3.52,2v11.56H131V368.6h3.63l.09,1.89a4.3,4.3,0,0,1,3.82-2.2,3.48,3.48,0,0,1,1.34.22Z"/><path class="cls-1" d="M145.76,368.6l.1,2a6.1,6.1,0,0,1,4.93-2.27q5.28,0,5.37,6v11.17h-3.8V374.56a3.52,3.52,0,0,0-.69-2.39,2.93,2.93,0,0,0-2.27-.77,3.66,3.66,0,0,0-3.43,2.08v12h-3.79V368.6Z"/><path class="cls-1" d="M167.47,385.82a7.89,7.89,0,0,1-5.85-2.27,8.27,8.27,0,0,1-2.24-6.06V377a10.19,10.19,0,0,1,1-4.53,7.39,7.39,0,0,1,2.74-3.1,7.26,7.26,0,0,1,3.94-1.11,6.64,6.64,0,0,1,5.33,2.2,9.31,9.31,0,0,1,1.89,6.24v1.53h-11a5,5,0,0,0,1.4,3.31,4.14,4.14,0,0,0,3.08,1.22,5.13,5.13,0,0,0,4.25-2.11l2.05,2a6.87,6.87,0,0,1-2.71,2.35A8.59,8.59,0,0,1,167.47,385.82ZM167,371.34a3.19,3.19,0,0,0-2.52,1.09,5.72,5.72,0,0,0-1.23,3.05h7.24v-.28a4.72,4.72,0,0,0-1-2.89A3.17,3.17,0,0,0,167,371.34Z"/><path class="cls-1" d="M182,364.49v4.11h3v2.82h-3v9.43a2.09,2.09,0,0,0,.38,1.4,1.77,1.77,0,0,0,1.37.43,6.1,6.1,0,0,0,1.33-.15v2.93a9.38,9.38,0,0,1-2.5.36q-4.38,0-4.38-4.83v-9.57h-2.78V368.6h2.78v-4.11Z"/><path class="cls-1" d="M807.74,379.65a2.75,2.75,0,0,0-1-2.31,12.73,12.73,0,0,0-3.81-1.64,18.11,18.11,0,0,1-4.37-1.85,5.82,5.82,0,0,1-3.11-5.09,5.56,5.56,0,0,1,2.24-4.53,9.06,9.06,0,0,1,5.82-1.78,9.92,9.92,0,0,1,4.24.87,7.12,7.12,0,0,1,2.92,2.49,6.4,6.4,0,0,1,1.06,3.59h-3.94a3.57,3.57,0,0,0-1.11-2.79,4.65,4.65,0,0,0-3.2-1,4.83,4.83,0,0,0-3,.83,2.77,2.77,0,0,0-1.07,2.31,2.5,2.5,0,0,0,1.16,2.09,13.32,13.32,0,0,0,3.81,1.63,17.56,17.56,0,0,1,4.27,1.79,6.88,6.88,0,0,1,2.36,2.31,6.06,6.06,0,0,1,.75,3.06,5.41,5.41,0,0,1-2.18,4.52,9.48,9.48,0,0,1-5.92,1.68,11.12,11.12,0,0,1-4.54-.91,7.68,7.68,0,0,1-3.22-2.52,6.35,6.35,0,0,1-1.14-3.75h3.95a3.7,3.7,0,0,0,1.28,3,5.65,5.65,0,0,0,3.67,1.06,4.84,4.84,0,0,0,3.1-.84A2.66,2.66,0,0,0,807.74,379.65Z"/><path class="cls-1" d="M829.65,380.28l2.69-11.68H836l-4.61,16.91H828.3l-3.62-11.61-3.56,11.61H818l-4.62-16.91h3.7l2.73,11.55,3.47-11.55h2.86Z"/><path class="cls-1" d="M838.59,364.21a2,2,0,0,1,.55-1.45,2.47,2.47,0,0,1,3.18,0,2,2,0,0,1,.56,1.45,1.92,1.92,0,0,1-.56,1.43,2.5,2.5,0,0,1-3.18,0A2,2,0,0,1,838.59,364.21Zm4,21.3h-3.8V368.6h3.8Z"/><path class="cls-1" d="M851.51,364.49v4.11h3v2.82h-3v9.43a2,2,0,0,0,.38,1.4,1.77,1.77,0,0,0,1.37.43,6.1,6.1,0,0,0,1.33-.15v2.93a9.38,9.38,0,0,1-2.5.36q-4.38,0-4.38-4.83v-9.57h-2.78V368.6h2.78v-4.11Z"/><path class="cls-1" d="M864.34,382.79a3.42,3.42,0,0,0,2.36-.83,2.86,2.86,0,0,0,1-2h3.57a5.58,5.58,0,0,1-1,2.94,6.61,6.61,0,0,1-2.5,2.17,7.47,7.47,0,0,1-3.41.79,7.2,7.2,0,0,1-5.62-2.29,9.12,9.12,0,0,1-2.08-6.35v-.39a9,9,0,0,1,2.06-6.18,7.14,7.14,0,0,1,5.63-2.32,6.94,6.94,0,0,1,4.91,1.76,6.27,6.27,0,0,1,2,4.62H867.7a3.51,3.51,0,0,0-1-2.39,3.17,3.17,0,0,0-2.36-.94,3.35,3.35,0,0,0-2.85,1.33,6.89,6.89,0,0,0-1,4.06v.61a6.94,6.94,0,0,0,1,4.1A3.34,3.34,0,0,0,864.34,382.79Z"/><path class="cls-1" d="M877.88,370.45a6,6,0,0,1,4.71-2.16q5.4,0,5.48,6.17v11.05h-3.8V374.6a3.35,3.35,0,0,0-.75-2.47,3.09,3.09,0,0,0-2.23-.73,3.67,3.67,0,0,0-3.41,2v12.08h-3.79v-24h3.79Z"/><path class="cls-1" d="M430.52,376.76h-4.41v8.75h-3.95V362.76h8a9.32,9.32,0,0,1,6.08,1.77,6.27,6.27,0,0,1,2.14,5.11,6.35,6.35,0,0,1-1.11,3.82,6.9,6.9,0,0,1-3.07,2.37l5.11,9.48v.2h-4.23Zm-4.41-3.19h4.06a4.48,4.48,0,0,0,3.13-1,3.5,3.5,0,0,0,1.12-2.75,3.72,3.72,0,0,0-1-2.83,4.38,4.38,0,0,0-3.1-1h-4.17Z"/><path class="cls-1" d="M441.05,376.9a10.06,10.06,0,0,1,1-4.48,7.29,7.29,0,0,1,2.77-3.06,7.82,7.82,0,0,1,4.09-1.07,7.44,7.44,0,0,1,5.56,2.2,8.66,8.66,0,0,1,2.3,5.85l0,.89a10.05,10.05,0,0,1-1,4.47,7.06,7.06,0,0,1-2.75,3,7.86,7.86,0,0,1-4.14,1.08,7.32,7.32,0,0,1-5.72-2.38,9.1,9.1,0,0,1-2.15-6.35Zm3.8.33a6.77,6.77,0,0,0,1.07,4.08,3.77,3.77,0,0,0,6,0A7.54,7.54,0,0,0,453,376.9a6.68,6.68,0,0,0-1.11-4.06,3.71,3.71,0,0,0-5.94,0A7.41,7.41,0,0,0,444.85,377.23Z"/><path class="cls-1" d="M470.22,383.85a5.88,5.88,0,0,1-4.75,2,5.22,5.22,0,0,1-4.16-1.61,6.79,6.79,0,0,1-1.42-4.65v-11h3.8v10.91c0,2.15.89,3.22,2.67,3.22a3.76,3.76,0,0,0,3.74-2V368.6h3.79v16.91h-3.58Z"/><path class="cls-1" d="M482.52,364.49v4.11h3v2.82h-3v9.43a2,2,0,0,0,.38,1.4,1.76,1.76,0,0,0,1.37.43,6.16,6.16,0,0,0,1.33-.15v2.93a9.38,9.38,0,0,1-2.5.36q-4.38,0-4.38-4.83v-9.57h-2.78V368.6h2.78v-4.11Z"/><path class="cls-1" d="M495.85,385.82a7.9,7.9,0,0,1-5.86-2.27,8.27,8.27,0,0,1-2.24-6.06V377a10.19,10.19,0,0,1,1-4.53,7.39,7.39,0,0,1,2.74-3.1,7.26,7.26,0,0,1,3.94-1.11,6.64,6.64,0,0,1,5.33,2.2,9.31,9.31,0,0,1,1.89,6.24v1.53H491.58a5,5,0,0,0,1.4,3.31,4.16,4.16,0,0,0,3.08,1.22,5.13,5.13,0,0,0,4.25-2.11l2.05,2a6.87,6.87,0,0,1-2.71,2.35A8.58,8.58,0,0,1,495.85,385.82Zm-.46-14.48a3.19,3.19,0,0,0-2.52,1.09,5.72,5.72,0,0,0-1.23,3.05h7.24v-.28a4.72,4.72,0,0,0-1-2.89A3.17,3.17,0,0,0,495.39,371.34Z"/><path class="cls-1" d="M514.42,372.07a9.7,9.7,0,0,0-1.54-.12,3.48,3.48,0,0,0-3.52,2v11.56h-3.8V368.6h3.63l.09,1.89a4.3,4.3,0,0,1,3.82-2.2,3.48,3.48,0,0,1,1.34.22Z"/><path class="cls-1" d="M131,174.35a85.81,85.81,0,1,0,85.81,85.81A85.9,85.9,0,0,0,131,174.35ZM197.7,299.82H171.84a145.82,145.82,0,0,0,5-33.72h31.54A77.23,77.23,0,0,1,197.7,299.82Zm-43.77,34.51c6.17-6.46,11.41-15.47,15.32-26.34h22.82A77.83,77.83,0,0,1,153.93,334.33ZM69.91,308H92.72c3.92,10.87,9.16,19.88,15.33,26.34A77.9,77.9,0,0,1,69.91,308ZM53.6,266.1H85.14a145.82,145.82,0,0,0,5,33.72H64.28A77.23,77.23,0,0,1,53.6,266.1Zm9.61-43.74H89.63a149.31,149.31,0,0,0-4.58,35.57H53.41A77,77,0,0,1,63.21,222.36ZM108.05,186c-6.52,6.82-12,16.51-16,28.2H68.48A78,78,0,0,1,108.05,186Zm85.45,28.2H169.89c-4-11.69-9.44-21.38-16-28.2A77.94,77.94,0,0,1,193.5,214.18Zm-24.74,43.75H93.22a138.84,138.84,0,0,1,5-35.57h65.5A138.84,138.84,0,0,1,168.76,257.93Zm-5.55,41.89H98.77a136,136,0,0,1-5.45-33.72h75.34A136.47,136.47,0,0,1,163.21,299.82ZM160.36,308c-7,17.68-17.66,29.21-29.37,29.21S108.61,325.67,101.62,308ZM100.9,214.18c7-18.72,18-31.07,30.09-31.07s23.12,12.35,30.09,31.07Zm76,43.75a149.83,149.83,0,0,0-4.58-35.57h26.42a77,77,0,0,1,9.8,35.57Z"/><rect class="cls-1" x="237.69" y="264.61" width="109.58" height="5"/><polygon class="cls-1" points="337.31 275.58 345.79 267.11 337.31 258.63 344.5 258.63 352.98 267.11 344.5 275.58 337.31 275.58"/><rect class="cls-1" x="584.34" y="264.61" width="135.99" height="5"/><polygon class="cls-1" points="710.37 275.58 718.85 267.11 710.37 258.63 717.57 258.63 726.05 267.11 717.57 275.58 710.37 275.58"/><polygon class="cls-1" points="1062.57 259.61 956.26 259.61 956.26 254.61 1057.57 254.61 1057.57 159.13 1200.03 159.13 1200.03 164.13 1062.57 164.13 1062.57 259.61"/><polygon class="cls-1" points="1190.07 170.11 1198.55 161.63 1190.07 153.16 1197.27 153.16 1205.74 161.63 1197.27 170.11 1190.07 170.11"/><polygon class="cls-1" points="1200.03 366.2 1057.57 366.2 1057.57 280.73 956.26 280.73 956.26 275.73 1062.57 275.73 1062.57 361.2 1200.03 361.2 1200.03 366.2"/><polygon class="cls-1" points="1190.07 372.18 1198.55 363.7 1190.07 355.23 1197.27 355.23 1205.74 363.7 1197.27 372.18 1190.07 372.18"/><path class="cls-1" d="M624.36,304h-3l-7.61-12.11V304h-3V287h3l7.63,12.16V287h2.94Z"/><path class="cls-1" d="M633.17,304.26a5.9,5.9,0,0,1-4.38-1.7A6.17,6.17,0,0,1,627.1,298v-.35a7.61,7.61,0,0,1,.74-3.39,5.44,5.44,0,0,1,5-3.16,5,5,0,0,1,4,1.65,7,7,0,0,1,1.41,4.68v1.15H630a3.83,3.83,0,0,0,1,2.48,3.17,3.17,0,0,0,2.32.92,3.88,3.88,0,0,0,3.19-1.58l1.53,1.46a5.1,5.1,0,0,1-2,1.76A6.36,6.36,0,0,1,633.17,304.26Zm-.34-10.86a2.38,2.38,0,0,0-1.89.82,4.21,4.21,0,0,0-.92,2.28h5.43v-.21a3.54,3.54,0,0,0-.76-2.16A2.4,2.4,0,0,0,632.83,293.4Z"/><path class="cls-1" d="M644,288.26v3.09h2.24v2.11H644v7.07a1.55,1.55,0,0,0,.28,1.05,1.34,1.34,0,0,0,1,.33,4.34,4.34,0,0,0,1-.12V304a7.06,7.06,0,0,1-1.88.27q-3.29,0-3.28-3.62v-7.18H639.1v-2.11h2.09v-3.09Z"/><path class="cls-1" d="M659.59,300.1l2-8.75h2.78L660.92,304h-2.34l-2.72-8.71L653.19,304h-2.34l-3.47-12.68h2.77l2.06,8.66,2.6-8.66H657Z"/><path class="cls-1" d="M665.75,297.57a7.54,7.54,0,0,1,.74-3.36,5.44,5.44,0,0,1,2.07-2.3,5.93,5.93,0,0,1,3.07-.8,5.54,5.54,0,0,1,4.17,1.65,6.54,6.54,0,0,1,1.73,4.39v.67a7.56,7.56,0,0,1-.72,3.35,5.36,5.36,0,0,1-2.06,2.28,5.9,5.9,0,0,1-3.1.81,5.52,5.52,0,0,1-4.3-1.79,6.86,6.86,0,0,1-1.61-4.76Zm2.85.25a5.1,5.1,0,0,0,.81,3.06,2.63,2.63,0,0,0,2.25,1.11,2.59,2.59,0,0,0,2.24-1.13,5.6,5.6,0,0,0,.81-3.29,5.06,5.06,0,0,0-.83-3.05,2.8,2.8,0,0,0-4.46,0A5.55,5.55,0,0,0,668.6,297.82Z"/><path class="cls-1" d="M686.59,294a7.36,7.36,0,0,0-1.16-.1,2.61,2.61,0,0,0-2.64,1.5V304h-2.85V291.35h2.72l.07,1.41a3.21,3.21,0,0,1,2.86-1.65,2.66,2.66,0,0,1,1,.17Z"/><path class="cls-1" d="M692.51,298.59l-1.27,1.3V304h-2.85V286h2.85v10.38l.89-1.11,3.5-3.95h3.43l-4.71,5.28,5.21,7.4h-3.29Z"/><path class="cls-1" d="M634.05,314h-5.32v14.67h-2.94V314h-5.28v-2.39h13.54Z"/><path class="cls-1" d="M641.89,318.6a7.46,7.46,0,0,0-1.16-.09,2.61,2.61,0,0,0-2.64,1.5v8.67h-2.85V316H638l.07,1.42a3.21,3.21,0,0,1,2.86-1.65,2.67,2.67,0,0,1,1,.16Z"/><path class="cls-1" d="M650.91,328.68a4.87,4.87,0,0,1-.33-1.18,4.79,4.79,0,0,1-6.44.32,3.45,3.45,0,0,1-1.21-2.69,3.59,3.59,0,0,1,1.51-3.11,7.28,7.28,0,0,1,4.3-1.09h1.75v-.83a2.24,2.24,0,0,0-.55-1.57,2.18,2.18,0,0,0-1.68-.6,2.51,2.51,0,0,0-1.59.49,1.49,1.49,0,0,0-.62,1.24H643.2a3.14,3.14,0,0,1,.69-2,4.64,4.64,0,0,1,1.88-1.43,6.68,6.68,0,0,1,2.66-.51,5.32,5.32,0,0,1,3.55,1.12,4,4,0,0,1,1.36,3.14v5.72a6.49,6.49,0,0,0,.48,2.73v.2Zm-3.13-2.05a3.3,3.3,0,0,0,1.59-.41,2.7,2.7,0,0,0,1.12-1.1v-2.39H649a4.21,4.21,0,0,0-2.38.55,1.77,1.77,0,0,0-.79,1.56,1.66,1.66,0,0,0,.54,1.3A2.1,2.1,0,0,0,647.78,326.63Z"/><path class="cls-1" d="M657.32,328.68V318.11h-1.93V316h1.93v-1.16a4.37,4.37,0,0,1,1.17-3.26,4.52,4.52,0,0,1,3.28-1.15,6.71,6.71,0,0,1,1.6.21l-.07,2.23a5.93,5.93,0,0,0-1.09-.09,1.83,1.83,0,0,0-2,2.1V316h2.58v2.11h-2.58v10.57Z"/><path class="cls-1" d="M665.83,328.68V318.11h-1.94V316h1.94v-1.16a4.37,4.37,0,0,1,1.17-3.26,4.5,4.5,0,0,1,3.28-1.15,6.56,6.56,0,0,1,1.59.21l-.07,2.23a5.77,5.77,0,0,0-1.09-.09,1.83,1.83,0,0,0-2,2.1V316h2.57v2.11h-2.57v10.57Z"/><path class="cls-1" d="M673.34,312.71a1.5,1.5,0,0,1,.42-1.09,1.55,1.55,0,0,1,1.19-.44,1.58,1.58,0,0,1,1.19.44,1.5,1.5,0,0,1,.42,1.09,1.47,1.47,0,0,1-.42,1.07,1.62,1.62,0,0,1-1.19.43,1.59,1.59,0,0,1-1.19-.43A1.47,1.47,0,0,1,673.34,312.71Zm3,16h-2.84V316h2.84Z"/><path class="cls-1" d="M684.67,326.64a2.6,2.6,0,0,0,1.77-.62,2.11,2.11,0,0,0,.75-1.54h2.68a4.16,4.16,0,0,1-.73,2.21,4.82,4.82,0,0,1-1.88,1.63,5.56,5.56,0,0,1-2.55.59,5.39,5.39,0,0,1-4.22-1.72,6.83,6.83,0,0,1-1.56-4.76v-.29a6.71,6.71,0,0,1,1.55-4.63,5.35,5.35,0,0,1,4.22-1.74,5.24,5.24,0,0,1,3.68,1.31,4.71,4.71,0,0,1,1.49,3.47h-2.68a2.63,2.63,0,0,0-.74-1.8,2.44,2.44,0,0,0-1.78-.7,2.52,2.52,0,0,0-2.13,1,5.13,5.13,0,0,0-.76,3v.46a5.26,5.26,0,0,0,.74,3.08A2.52,2.52,0,0,0,684.67,326.64Z"/></svg>